<svg xmlns="http://www.w3.org/2000/svg" xmlns:xlink="http://www.w3.org/1999/xlink" width="500" zoomAndPan="magnify" viewBox="0 0 375 374.999991" height="500" preserveAspectRatio="xMidYMid meet" version="1.0"><defs><g/></defs><rect x="-37.5" width="450" fill="#ffffff" y="-37.499999" height="449.999989" fill-opacity="1"/><rect x="-37.5" width="450" fill="#ffffff" y="-37.499999" height="449.999989" fill-opacity="1"/><g fill="#000000" fill-opacity="1"><g transform="translate(159.657094, 217.499986)"><g><path d="M 22.472656 -60.226562 L 21.972656 -60.226562 L 21.972656 -60.328125 L 22.472656 -60.226562 C 22.472656 -63.425781 21.574219 -65.921875 19.976562 -67.917969 C 18.277344 -69.917969 16.082031 -70.914062 13.285156 -70.914062 C 10.488281 -70.914062 8.191406 -69.917969 6.492188 -67.917969 C 4.792969 -65.921875 3.996094 -63.425781 3.996094 -60.226562 L 3.996094 -9.6875 C 3.996094 -6.492188 4.792969 -3.894531 6.492188 -1.898438 C 8.191406 0.101562 10.488281 1 13.285156 1 C 16.082031 1 18.277344 0.101562 19.976562 -1.898438 C 21.574219 -3.894531 22.472656 -6.492188 22.472656 -9.6875 L 22.472656 -12.785156 L 21.375 -12.785156 L 21.375 -9.589844 C 21.375 -6.59375 20.574219 -4.292969 19.175781 -2.597656 C 17.679688 -0.800781 15.679688 0 13.285156 0 C 12.085938 0 11.1875 -0.800781 10.585938 -2.398438 C 9.988281 -3.996094 9.6875 -6.09375 9.6875 -8.789062 C 9.589844 -12.984375 9.589844 -17.679688 9.589844 -23.074219 L 9.589844 -61.125 C 9.589844 -63.722656 9.886719 -65.921875 10.585938 -67.519531 C 11.1875 -69.117188 12.085938 -69.917969 13.285156 -69.917969 C 15.679688 -69.917969 17.679688 -69.015625 19.175781 -67.320312 C 20.574219 -65.523438 21.375 -63.222656 21.375 -60.328125 L 21.375 -57.03125 L 22.472656 -57.03125 Z M 22.472656 -60.226562 "/></g></g></g><g fill="#000000" fill-opacity="1"><g transform="translate(194.354076, 217.499986)"><g><path d="M 17.378906 -34.957031 L 9.6875 -34.957031 L 9.6875 -68.917969 L 18.976562 -68.917969 L 18.976562 -69.917969 L 3.996094 -69.917969 L 3.996094 0 L 9.6875 0 L 9.6875 -33.960938 L 17.378906 -33.960938 Z M 17.378906 -34.957031 "/></g></g></g></svg>