<svg xmlns="http://www.w3.org/2000/svg" xmlns:xlink="http://www.w3.org/1999/xlink" width="500" zoomAndPan="magnify" viewBox="0 0 375 374.999991" height="500" preserveAspectRatio="xMidYMid meet" version="1.0"><defs><g/></defs><g fill="#000000" fill-opacity="1"><g transform="translate(158.805631, 235.359184)"><g><path d="M 8.9375 -0.453125 C 8.21875 -0.0546875 7.222656 0.140625 5.953125 0.140625 C 4.679688 0.140625 3.5625 -0.316406 2.59375 -1.234375 C 1.625 -2.148438 1.140625 -3.285156 1.140625 -4.640625 C 1.140625 -5.992188 1.5625 -7.128906 2.40625 -8.046875 C 3.25 -8.960938 4.335938 -9.421875 5.671875 -9.421875 C 6.753906 -9.421875 7.804688 -9.253906 8.828125 -8.921875 L 8.65625 -8.375 C 7.664062 -8.675781 6.640625 -8.828125 5.578125 -8.828125 C 4.523438 -8.828125 3.640625 -8.425781 2.921875 -7.625 C 2.203125 -6.820312 1.84375 -5.835938 1.84375 -4.671875 C 1.84375 -3.503906 2.257812 -2.507812 3.09375 -1.6875 C 3.925781 -0.863281 4.890625 -0.453125 5.984375 -0.453125 C 7.085938 -0.453125 8 -0.609375 8.71875 -0.921875 Z M 8.9375 -0.453125 "/></g></g></g><g fill="#000000" fill-opacity="1"><g transform="translate(170.473476, 235.359184)"><g><path d="M 1.71875 0 L 1.71875 -9.28125 L 2.375 -9.28125 L 2.375 -0.59375 L 6.640625 -0.59375 L 6.640625 0 Z M 1.71875 0 "/></g></g></g><g fill="#000000" fill-opacity="1"><g transform="translate(179.43921, 235.359184)"><g><path d="M 5.8125 0.140625 C 4.488281 0.140625 3.378906 -0.316406 2.484375 -1.234375 C 1.585938 -2.160156 1.140625 -3.289062 1.140625 -4.625 C 1.140625 -5.96875 1.585938 -7.101562 2.484375 -8.03125 C 3.378906 -8.957031 4.488281 -9.421875 5.8125 -9.421875 C 7.144531 -9.421875 8.257812 -8.957031 9.15625 -8.03125 C 10.050781 -7.101562 10.5 -5.96875 10.5 -4.625 C 10.5 -3.289062 10.050781 -2.160156 9.15625 -1.234375 C 8.257812 -0.316406 7.144531 0.140625 5.8125 0.140625 Z M 5.828125 -8.828125 C 4.679688 -8.828125 3.726562 -8.421875 2.96875 -7.609375 C 2.207031 -6.804688 1.828125 -5.816406 1.828125 -4.640625 C 1.828125 -3.460938 2.207031 -2.46875 2.96875 -1.65625 C 3.726562 -0.851562 4.679688 -0.453125 5.828125 -0.453125 C 6.972656 -0.453125 7.921875 -0.851562 8.671875 -1.65625 C 9.429688 -2.46875 9.8125 -3.460938 9.8125 -4.640625 C 9.8125 -5.816406 9.429688 -6.804688 8.671875 -7.609375 C 7.921875 -8.421875 6.972656 -8.828125 5.828125 -8.828125 Z M 5.828125 -8.828125 "/></g></g></g><g fill="#000000" fill-opacity="1"><g transform="translate(193.180105, 235.359184)"><g><path d="M 1.71875 0 L 1.71875 -9.28125 L 6.46875 -9.28125 L 6.46875 -8.703125 L 2.375 -8.703125 L 2.375 -5.328125 L 6.125 -5.328125 L 6.125 -4.78125 L 2.375 -4.78125 L 2.375 0 Z M 1.71875 0 "/></g></g></g><g fill="#000000" fill-opacity="1"><g transform="translate(202.589047, 235.359184)"><g><path d="M 1.71875 0 L 1.71875 -9.28125 L 2.375 -9.28125 L 2.375 0 Z M 1.71875 0 "/></g></g></g><g fill="#000000" fill-opacity="1"><g transform="translate(208.781182, 235.359184)"><g><path d="M 3.375 -8.6875 L 0.234375 -8.6875 L 0.234375 -9.28125 L 7.15625 -9.28125 L 7.15625 -8.6875 L 4.015625 -8.6875 L 4.015625 0 L 3.375 0 Z M 3.375 -8.6875 "/></g></g></g><g fill="#000000" fill-opacity="1"><g transform="translate(146.408067, 256.895052)"><g><path d="M 4.859375 0.125 C 3.785156 0.125 2.859375 -0.238281 2.078125 -0.96875 C 1.304688 -1.707031 0.921875 -2.613281 0.921875 -3.6875 C 0.921875 -4.769531 1.257812 -5.675781 1.9375 -6.40625 C 2.613281 -7.144531 3.476562 -7.515625 4.53125 -7.515625 C 5.351562 -7.515625 6.191406 -7.375 7.046875 -7.09375 L 6.90625 -6.6875 C 6.082031 -6.925781 5.289062 -7.046875 4.53125 -7.046875 C 3.632812 -7.046875 2.898438 -6.722656 2.328125 -6.078125 C 1.753906 -5.429688 1.46875 -4.640625 1.46875 -3.703125 C 1.46875 -2.765625 1.796875 -1.96875 2.453125 -1.3125 C 3.117188 -0.65625 3.921875 -0.328125 4.859375 -0.328125 C 5.671875 -0.328125 6.375 -0.453125 6.96875 -0.703125 L 7.109375 -0.34375 C 6.847656 -0.195312 6.503906 -0.0820312 6.078125 0 C 5.660156 0.0820312 5.253906 0.125 4.859375 0.125 Z M 4.859375 0.125 "/></g></g></g><g fill="#000000" fill-opacity="1"><g transform="translate(155.618619, 256.895052)"><g><path d="M 1.359375 0 L 1.359375 -7.390625 L 1.859375 -7.390625 L 1.859375 -0.453125 L 5.25 -0.453125 L 5.25 0 Z M 1.359375 0 "/></g></g></g><g fill="#000000" fill-opacity="1"><g transform="translate(162.619797, 256.895052)"><g><path d="M 1.953125 -0.984375 C 1.265625 -1.722656 0.921875 -2.628906 0.921875 -3.703125 C 0.921875 -4.773438 1.265625 -5.675781 1.953125 -6.40625 C 2.640625 -7.144531 3.503906 -7.515625 4.546875 -7.515625 C 5.597656 -7.515625 6.46875 -7.144531 7.15625 -6.40625 C 7.84375 -5.675781 8.1875 -4.773438 8.1875 -3.703125 C 8.1875 -2.628906 7.84375 -1.722656 7.15625 -0.984375 C 6.46875 -0.242188 5.597656 0.125 4.546875 0.125 C 3.503906 0.125 2.640625 -0.242188 1.953125 -0.984375 Z M 2.328125 -6.078125 C 1.753906 -5.441406 1.46875 -4.644531 1.46875 -3.6875 C 1.46875 -2.738281 1.753906 -1.941406 2.328125 -1.296875 C 2.898438 -0.648438 3.640625 -0.328125 4.546875 -0.328125 C 5.460938 -0.328125 6.207031 -0.648438 6.78125 -1.296875 C 7.363281 -1.941406 7.65625 -2.738281 7.65625 -3.6875 C 7.65625 -4.644531 7.363281 -5.441406 6.78125 -6.078125 C 6.207031 -6.722656 5.460938 -7.046875 4.546875 -7.046875 C 3.640625 -7.046875 2.898438 -6.722656 2.328125 -6.078125 Z M 2.328125 -6.078125 "/></g></g></g><g fill="#000000" fill-opacity="1"><g transform="translate(173.25508, 256.895052)"><g><path d="M 4.546875 -6.734375 C 4.046875 -6.941406 3.550781 -7.046875 3.0625 -7.046875 C 2.050781 -7.046875 1.546875 -6.675781 1.546875 -5.9375 C 1.546875 -5.613281 1.660156 -5.3125 1.890625 -5.03125 C 2.117188 -4.75 2.394531 -4.5 2.71875 -4.28125 C 3.039062 -4.070312 3.363281 -3.851562 3.6875 -3.625 C 4.007812 -3.394531 4.285156 -3.117188 4.515625 -2.796875 C 4.742188 -2.484375 4.859375 -2.144531 4.859375 -1.78125 C 4.859375 -1.15625 4.644531 -0.679688 4.21875 -0.359375 C 3.800781 -0.0351562 3.222656 0.125 2.484375 0.125 C 1.742188 0.125 1.113281 -0.0625 0.59375 -0.4375 L 0.84375 -0.8125 C 1.332031 -0.488281 1.875 -0.328125 2.46875 -0.328125 C 3.0625 -0.328125 3.515625 -0.445312 3.828125 -0.6875 C 4.148438 -0.925781 4.3125 -1.269531 4.3125 -1.71875 C 4.3125 -2.019531 4.195312 -2.3125 3.96875 -2.59375 C 3.738281 -2.875 3.460938 -3.125 3.140625 -3.34375 C 2.816406 -3.570312 2.492188 -3.800781 2.171875 -4.03125 C 1.847656 -4.269531 1.570312 -4.550781 1.34375 -4.875 C 1.113281 -5.195312 1 -5.546875 1 -5.921875 C 1 -6.410156 1.179688 -6.796875 1.546875 -7.078125 C 1.910156 -7.367188 2.398438 -7.515625 3.015625 -7.515625 C 3.628906 -7.515625 4.203125 -7.390625 4.734375 -7.140625 Z M 4.546875 -6.734375 "/></g></g></g><g fill="#000000" fill-opacity="1"><g transform="translate(180.421445, 256.895052)"><g><path d="M 1.359375 0 L 1.359375 -7.390625 L 4.796875 -7.390625 L 4.796875 -6.953125 L 1.859375 -6.953125 L 1.859375 -4.234375 L 4.515625 -4.234375 L 4.515625 -3.8125 L 1.859375 -3.8125 L 1.859375 -0.4375 L 4.90625 -0.4375 L 4.90625 0 Z M 1.359375 0 "/></g></g></g><g fill="#000000" fill-opacity="1"><g transform="translate(187.463915, 256.895052)"><g><path d="M 2.734375 -6.953125 L 0.234375 -6.953125 L 0.234375 -7.390625 L 5.71875 -7.390625 L 5.71875 -6.953125 L 3.21875 -6.953125 L 3.21875 0 L 2.734375 0 Z M 2.734375 -6.953125 "/></g></g></g><g fill="#000000" fill-opacity="1"><g transform="translate(194.935411, 256.895052)"><g/></g></g><g fill="#000000" fill-opacity="1"><g transform="translate(200.171155, 256.895052)"><g/></g></g><g fill="#000000" fill-opacity="1"><g transform="translate(205.4069, 256.895052)"><g/></g></g><g fill="#000000" fill-opacity="1"><g transform="translate(210.65025, 256.895052)"><g><path d="M 1.359375 0 L 1.359375 -7.390625 L 5.140625 -7.390625 L 5.140625 -6.953125 L 1.859375 -6.953125 L 1.859375 -4.234375 L 4.859375 -4.234375 L 4.859375 -3.8125 L 1.859375 -3.8125 L 1.859375 0 Z M 1.359375 0 "/></g></g></g><g fill="#000000" fill-opacity="1"><g transform="translate(217.87856, 256.895052)"><g><path d="M 1.359375 0 L 1.359375 -7.390625 L 1.859375 -7.390625 L 1.859375 0 Z M 1.359375 0 "/></g></g></g><g fill="#000000" fill-opacity="1"><g transform="translate(222.618741, 256.895052)"><g><path d="M 2.734375 -6.953125 L 0.234375 -6.953125 L 0.234375 -7.390625 L 5.71875 -7.390625 L 5.71875 -6.953125 L 3.21875 -6.953125 L 3.21875 0 L 2.734375 0 Z M 2.734375 -6.953125 "/></g></g></g><g fill="#b3ff51" fill-opacity="1"><g transform="translate(198.779053, 259.145052)"><g><path d="M 4 -10.671875 C 4.5 -10.671875 5.128906 -10.613281 5.890625 -10.5 L 5.859375 -9.359375 C 5.191406 -9.472656 4.570312 -9.53125 4 -9.53125 C 2.914062 -9.53125 2.375 -9.019531 2.375 -8 L 2.375 -7.640625 C 2.375 -7.085938 2.539062 -6.65625 2.875 -6.34375 C 3.21875 -6.03125 3.71875 -5.875 4.375 -5.875 L 5.984375 -5.875 L 5.984375 -7.046875 L 7.296875 -7.046875 L 7.296875 -5.875 L 8.484375 -5.875 L 8.484375 -4.765625 L 7.296875 -4.765625 L 7.296875 -0.203125 C 6.535156 -0.046875 5.972656 0.0546875 5.609375 0.109375 C 5.242188 0.160156 4.832031 0.1875 4.375 0.1875 C 3.039062 0.1875 2.082031 -0.0507812 1.5 -0.53125 C 0.925781 -1.007812 0.640625 -1.695312 0.640625 -2.59375 L 0.640625 -2.9375 C 0.640625 -3.539062 0.800781 -4.0625 1.125 -4.5 C 1.445312 -4.945312 1.910156 -5.257812 2.515625 -5.4375 C 1.535156 -5.863281 1.046875 -6.640625 1.046875 -7.765625 L 1.046875 -8.109375 C 1.046875 -8.859375 1.300781 -9.472656 1.8125 -9.953125 C 2.332031 -10.429688 3.0625 -10.671875 4 -10.671875 Z M 4.265625 -4.765625 C 3.515625 -4.765625 2.945312 -4.609375 2.5625 -4.296875 C 2.1875 -3.992188 2 -3.566406 2 -3.015625 L 2 -2.578125 C 2 -2.054688 2.191406 -1.65625 2.578125 -1.375 C 2.972656 -1.09375 3.570312 -0.953125 4.375 -0.953125 C 4.832031 -0.953125 5.367188 -1.023438 5.984375 -1.171875 L 5.984375 -4.765625 Z M 4.265625 -4.765625 "/></g></g></g></svg>